# xmcd CD database file
#
# Track frame offsets:
#	150
#	14358
#	28703
#	43234
#	55839
#	65344
#	75473
#	87967
#	100115
#	106850
#	114245
#	120258
#	127870
#	144600
#	165230
#
# Disc length: 2421 seconds
#
# Revision: 2
# Processed by: cddbd v1.5.1PL0 Copyright (c) Steve Scherf et al.
# Submitted via: CDex 1.51
#
DISCID=af09730f
DTITLE=Willie Nelson - Fourteen #1 Hits
DYEAR=2002
DGENRE=Country
TTITLE0=Good Hearted Woman
TTITLE1=Blue Skies
TTITLE2=Georgia On My Mind
TTITLE3=Blue Eyes Crying In The Rain
TTITLE4=On The Road Again
TTITLE5=Mama Don't Let Your Babies Grow Up To Be Cowboys
TTITLE6=Seven Spanish Angels
TTITLE7=City Of New Orleans
TTITLE8=To All The Girls I've Loved Before
TTITLE9=Luckenbach Texas
TTITLE10=Whiskey River
TTITLE11=If You've Got The Money I've Got The Time
TTITLE12=Angel Flying Too Close To The Ground
TTITLE13=Pancho and Lefty
TTITLE14=Always On My Mind
EXTD=YEAR: 2002
EXTT0=
EXTT1=
EXTT2=
EXTT3=
EXTT4=
EXTT5=
EXTT6=
EXTT7=
EXTT8=
EXTT9=
EXTT10=
EXTT11=
EXTT12=
EXTT13=
EXTT14=
PLAYORDER=
